<svg width="36" height="33" viewBox="0 0 36 33" fill="none" xmlns="http://www.w3.org/2000/svg">
<g clip-path="url(#clip0_461_47)">
<path d="M1.48019 13.6423C0.532465 13.0986 0 12.1467 0 11.1513C0 10.1543 0.532465 9.20236 1.48019 8.6604L15.4013 0.678643C16.2002 0.233163 17.093 0 18 0C18.907 0 19.7998 0.233163 20.5987 0.678643L34.5198 8.6604C35.4675 9.20236 36 10.1543 36 11.1513C36 12.1467 35.4675 13.0986 34.5198 13.6423L20.5987 21.6223C19.8001 22.0687 18.9071 22.3024 18 22.3024C17.0929 22.3024 16.1999 22.0687 15.4013 21.6223L1.48019 13.6423ZM2.69414 11.3615L16.6153 19.3415C17.0408 19.5793 17.5166 19.7038 18 19.7038C18.4834 19.7038 18.9592 19.5793 19.3847 19.3415L33.3059 11.3615C33.398 11.3094 33.4884 11.2469 33.4884 11.1513C33.4884 11.0541 33.398 10.9933 33.3059 10.9394L19.3847 2.95939C18.9592 2.72161 18.4834 2.59713 18 2.59713C17.5166 2.59713 17.0408 2.72161 16.6153 2.95939L2.69414 10.9394C2.60205 10.9933 2.51163 11.0541 2.51163 11.1513C2.51163 11.2469 2.60205 11.3094 2.69414 11.3615Z" fill="white"/>
<path d="M28.4651 15.1952C28.4651 14.8497 28.5974 14.5183 28.8329 14.274C29.0684 14.0297 29.3878 13.8924 29.7209 13.8924C30.0539 13.8924 30.3734 14.0297 30.6089 14.274C30.8444 14.5183 30.9767 14.8497 30.9767 15.1952V23.0119C30.9767 24.7395 30.3151 26.3964 29.1376 27.618C27.96 28.8396 26.3629 29.5259 24.6976 29.5259H11.3023C9.63695 29.5259 8.03984 28.8396 6.86229 27.618C5.68474 26.3964 5.02319 24.7395 5.02319 23.0119V15.1952C5.02319 14.8497 5.1555 14.5183 5.39101 14.274C5.62652 14.0297 5.94594 13.8924 6.27901 13.8924C6.61207 13.8924 6.93149 14.0297 7.167 14.274C7.40251 14.5183 7.53482 14.8497 7.53482 15.1952V23.0119C7.53482 24.0485 7.93175 25.0426 8.63828 25.7756C9.34481 26.5085 10.3031 26.9203 11.3023 26.9203H24.6976C25.6968 26.9203 26.6551 26.5085 27.3616 25.7756C28.0681 25.0426 28.4651 24.0485 28.4651 23.0119V15.1952Z" fill="white"/>
<path d="M17.1125 12.6417C16.9959 12.5208 16.9035 12.3773 16.8404 12.2194C16.7773 12.0614 16.7449 11.8921 16.7449 11.7211C16.7449 11.5501 16.7773 11.3808 16.8404 11.2229C16.9035 11.0649 16.9959 10.9214 17.1125 10.8005C17.3478 10.5563 17.6671 10.4191 17.9999 10.4191C18.1647 10.4191 18.3279 10.4528 18.4802 10.5182C18.6325 10.5837 18.7708 10.6796 18.8873 10.8005L24.7478 16.8802C24.9839 17.1233 25.1162 17.4551 25.1162 17.8008V31.6972C25.1162 32.0427 24.9839 32.3741 24.7484 32.6184C24.5129 32.8628 24.1934 33 23.8604 33C23.5273 33 23.2079 32.8628 22.9724 32.6184C22.7369 32.3741 22.6046 32.0427 22.6046 31.6972V18.341L17.1125 12.6417Z" fill="white"/>
</g>
<defs>
<clipPath id="clip0_461_47">
<rect width="36" height="33" fill="white"/>
</clipPath>
</defs>
</svg>
