<svg width="41" height="41" viewBox="0 0 41 41" fill="none" xmlns="http://www.w3.org/2000/svg">
<path d="M20.4974 15.2405C19.6634 15.2406 18.8481 14.9934 18.1546 14.5302C17.4611 14.0669 16.9205 13.4084 16.6013 12.638C16.2821 11.8675 16.1985 11.0197 16.3611 10.2017C16.5237 9.3837 16.9253 8.63232 17.5149 8.04255C18.1046 7.45279 18.8559 7.05113 19.6739 6.88838C20.4919 6.72563 21.3397 6.8091 22.1102 7.12822C22.8807 7.44735 23.5393 7.9878 24.0027 8.68123C24.466 9.37466 24.7133 10.1899 24.7133 11.0239C24.712 12.1416 24.2675 13.2131 23.4773 14.0035C22.6871 14.794 21.6151 15.2388 20.4974 15.2405ZM20.4974 8.08856C19.9168 8.08844 19.3492 8.26048 18.8664 8.58295C18.3836 8.90541 18.0073 9.3638 17.785 9.90016C17.5628 10.4365 17.5045 11.0267 17.6177 11.5962C17.7309 12.1656 18.0104 12.6887 18.4209 13.0993C18.8314 13.5099 19.3544 13.7895 19.9239 13.9028C20.4933 14.0161 21.0835 13.958 21.6199 13.7359C22.1563 13.5137 22.6148 13.1375 22.9374 12.6548C23.2599 12.172 23.4321 11.6045 23.4321 11.0239C23.4312 10.2459 23.1219 9.49996 22.5719 8.94969C22.0218 8.39943 21.2754 8.08975 20.4974 8.08856Z" fill="white"/>
<path d="M20.4975 20.6365C19.3668 20.6358 18.5365 19.9952 18.4757 19.0778L18.384 18.3187C17.8367 18.1592 17.3088 17.9394 16.81 17.6633L16.4916 17.8837C15.801 18.459 14.7792 18.3161 13.9926 17.5288C13.2059 16.7415 13.0637 15.721 13.6377 15.0297L13.858 14.7113C13.5819 14.2129 13.3623 13.6852 13.2033 13.138L12.4089 13.0425C11.5262 12.9848 10.8855 12.1546 10.8849 11.0245C10.8842 9.89447 11.5255 9.06358 12.4429 9.00208L13.2033 8.91111C13.3623 8.36371 13.5819 7.83577 13.858 7.3371L13.6377 7.01871C13.0637 6.32683 13.2059 5.30632 13.9926 4.52027C14.7773 3.73422 15.7991 3.58816 16.4916 4.16472L16.81 4.3851C17.3085 4.10908 17.8362 3.88948 18.3834 3.73038L18.4789 2.936C18.5365 2.05386 19.3668 1.41324 20.4968 1.4126C21.6262 1.4126 22.4578 2.05322 22.5193 2.9706L22.6109 3.73038C23.1583 3.88937 23.6862 4.10897 24.1849 4.3851L24.5033 4.16408C25.1958 3.59072 26.2163 3.73358 27.0017 4.51963C27.7871 5.30568 27.9306 6.32683 27.3573 7.01807L27.1369 7.33646C27.413 7.83491 27.6326 8.36264 27.7916 8.90983L28.5854 9.00465C29.4688 9.06358 30.1094 9.89511 30.1094 11.0252C30.1094 12.1552 29.4681 12.9855 28.5508 13.0463L27.7923 13.138C27.6328 13.6853 27.413 14.2132 27.1369 14.712L27.3573 15.0304C27.9319 15.7222 27.7884 16.7434 27.0017 17.5294C26.215 18.3155 25.1958 18.4603 24.5033 17.8843L24.1849 17.664C23.6865 17.9401 23.1587 18.1597 22.6115 18.3187L22.5167 19.1131C22.4584 19.9965 21.6262 20.6365 20.4975 20.6365ZM16.7825 16.2636C16.903 16.2634 17.0211 16.2971 17.1233 16.3609C17.7347 16.745 18.4065 17.0231 19.1105 17.1835C19.2392 17.213 19.3556 17.2815 19.4439 17.3797C19.5322 17.4778 19.588 17.6008 19.6038 17.7319L19.7511 18.96C19.7691 19.2201 20.1432 19.3552 20.4968 19.3552C20.8505 19.3552 21.2259 19.2201 21.2406 18.9933L21.3911 17.7312C21.407 17.6003 21.4629 17.4774 21.5512 17.3794C21.6395 17.2814 21.7558 17.213 21.8844 17.1835C22.5886 17.023 23.2606 16.745 23.8723 16.3609C23.9784 16.2944 24.1018 16.2605 24.227 16.2633C24.3523 16.2662 24.4739 16.3057 24.577 16.377L25.258 16.8485C25.7672 17.1982 26.6686 16.2873 26.322 15.7837L25.8512 15.1028C25.7798 14.9998 25.7402 14.8782 25.7372 14.7529C25.7342 14.6277 25.7681 14.5043 25.8345 14.3981C26.2187 13.7865 26.4971 13.1144 26.6577 12.4102C26.6872 12.2816 26.7556 12.1653 26.8536 12.077C26.9516 11.9887 27.0745 11.9328 27.2055 11.9169L28.4329 11.7696C28.693 11.7516 28.8282 11.3775 28.8282 11.0239C28.8282 10.6703 28.6936 10.2955 28.4668 10.2808L27.2055 10.1302C27.0745 10.1143 26.9516 10.0584 26.8536 9.97015C26.7556 9.88187 26.6872 9.76552 26.6577 9.63694C26.4971 8.93275 26.2187 8.2607 25.8345 7.64908C25.768 7.54292 25.734 7.41959 25.7369 7.29434C25.7397 7.16909 25.7792 7.04742 25.8505 6.9444L26.322 6.26277C26.6718 5.75475 25.7608 4.85339 25.258 5.19933L24.5763 5.67019C24.4733 5.74147 24.3516 5.78098 24.2264 5.78383C24.1011 5.78668 23.9778 5.75274 23.8716 5.68621C23.2602 5.30227 22.5884 5.02418 21.8844 4.86364C21.7558 4.83413 21.6393 4.76562 21.551 4.66748C21.4628 4.56933 21.4069 4.44633 21.3911 4.31527L21.2438 3.08783C21.2252 2.82774 20.8505 2.69257 20.4975 2.69257C20.1438 2.69257 19.7691 2.82774 19.7537 3.05388L19.6038 4.31591C19.5879 4.44686 19.532 4.56972 19.4437 4.66774C19.3554 4.76575 19.2391 4.83417 19.1105 4.86364C18.4063 5.02415 17.7342 5.30246 17.1227 5.68685C17.0165 5.75338 16.8932 5.78732 16.7679 5.78447C16.6427 5.78162 16.521 5.74212 16.418 5.67083L15.737 5.19933C15.2277 4.84955 14.3263 5.75988 14.6729 6.26341L15.1438 6.94504C15.2151 7.048 15.2548 7.16963 15.2577 7.29488C15.2607 7.42013 15.2269 7.5435 15.1604 7.64972C14.7763 8.26114 14.4979 8.93297 14.3372 9.63694C14.3077 9.76552 14.2393 9.88187 14.1413 9.97015C14.0433 10.0584 13.9204 10.1143 13.7895 10.1302L12.5614 10.2776C12.3013 10.2961 12.1661 10.6709 12.1661 11.0245C12.1661 11.3782 12.3007 11.7523 12.5268 11.7677L13.7895 11.9176C13.9204 11.9335 14.0433 11.9894 14.1413 12.0776C14.2393 12.1659 14.3077 12.2823 14.3372 12.4108C14.4979 13.115 14.7762 13.7871 15.1604 14.3987C15.2269 14.5049 15.2607 14.6283 15.2577 14.7535C15.2548 14.8788 15.2151 15.0004 15.1438 15.1034L14.6729 15.7844C14.3231 16.2937 15.2328 17.195 15.737 16.8485L16.418 16.3776C16.5252 16.3032 16.652 16.2634 16.7825 16.2636Z" fill="white"/>
<path d="M36.4387 28.1869C36.4226 26.8265 35.9255 25.5156 35.0356 24.4865C34.1456 23.4574 32.9203 22.7764 31.5764 22.5641L28.2836 22.0651L24.8594 19.8005C24.7894 19.7538 24.7109 19.7213 24.6284 19.705C24.5459 19.6886 24.4609 19.6887 24.3784 19.7052C24.2959 19.7216 24.2174 19.7542 24.1475 19.801C24.0776 19.8478 24.0176 19.9079 23.9709 19.9779L20.4961 24.9107L17.0624 20.1022L16.9772 19.9837C16.8801 19.8495 16.7348 19.7581 16.5717 19.7287C16.4087 19.6993 16.2406 19.7342 16.1027 19.8261L12.5344 22.2028C12.5274 22.208 12.5229 22.2156 12.5165 22.2208L9.27687 22.7973C7.93917 23.0355 6.72906 23.7398 5.86124 24.7852C4.99342 25.8307 4.524 27.1498 4.53624 28.5085L4.61248 35.9583C4.61169 36.3848 4.75676 36.7987 5.0236 37.1314C5.29045 37.4641 5.66303 37.6955 6.07951 37.7873C10.2289 38.7625 14.437 39.4687 18.6774 39.9014C19.9163 40.0292 21.1655 40.0208 22.4026 39.8764C26.6397 39.4939 32.6847 38.0756 35.0838 37.4843C35.4971 37.3855 35.8642 37.1485 36.1246 36.8127C36.3849 36.4769 36.5229 36.0622 36.5156 35.6374L36.4387 28.1869ZM27.3021 22.9671L24.6218 28.8749L21.3469 25.9345L24.6397 21.2573L27.3021 22.9671ZM16.3455 21.3027L19.6544 25.9351L16.384 28.8743L13.7145 23.0113L16.3455 21.3027ZM22.2309 28.4521L21.5954 30.2696H19.4192L18.7671 28.4579L20.5051 26.9012L22.2309 28.4521ZM5.89373 35.9513L5.81685 28.4944C5.80818 27.4385 6.17376 26.4136 6.84876 25.6015C7.52376 24.7894 8.46455 24.2426 9.50429 24.0581L12.537 23.518L15.58 30.2017C15.6226 30.2924 15.6858 30.372 15.7646 30.4341C15.8433 30.4963 15.9354 30.5392 16.0336 30.5596C16.1318 30.58 16.2334 30.5772 16.3303 30.5516C16.4273 30.5259 16.5169 30.4781 16.5922 30.4118L17.7376 29.3817L18.3661 31.1306C18.4089 31.2457 18.4841 31.346 18.5826 31.4195L18.1335 38.5702C14.1748 38.115 10.2449 37.4366 6.36267 36.5381C6.22974 36.5076 6.11105 36.433 6.0259 36.3264C5.94076 36.2199 5.89418 36.0877 5.89373 35.9513ZM19.4109 38.6611L19.8594 31.5534H21.1483L21.589 38.649C21.5544 38.6515 19.45 38.663 19.4116 38.6618L19.4109 38.6611ZM34.7795 36.2396C30.8562 37.2367 26.8786 38.0061 22.8664 38.5439L22.4238 31.4323C22.5303 31.3559 22.6108 31.2485 22.6544 31.1248L23.2643 29.3791L24.4148 30.4124C24.4902 30.4785 24.58 30.5262 24.677 30.5517C24.7739 30.5772 24.8755 30.5798 24.9737 30.5593C25.0718 30.5388 25.1639 30.4957 25.2426 30.4336C25.3212 30.3714 25.3844 30.2918 25.427 30.201L28.5148 23.3957L31.3772 23.8294C32.4217 23.9948 33.3741 24.5243 34.0659 25.3242C34.7577 26.1241 35.1444 27.1429 35.1575 28.2004L35.2344 35.6508C35.236 35.7858 35.192 35.9174 35.1096 36.0244C35.0272 36.1313 34.9111 36.2074 34.7802 36.2402L34.7795 36.2396Z" fill="white"/>
</svg>
