<svg width="35" height="35" viewBox="0 0 35 35" fill="none" xmlns="http://www.w3.org/2000/svg">
<path d="M17.1739 29.6081L16.7528 29.8189L4.37506 24.3177V9.87204L16.4747 15.2497C16.5679 15.2911 16.6688 15.3125 16.7709 15.3125C16.873 15.3125 16.9739 15.2911 17.0671 15.2497L29.1667 9.87204V16.0417C29.1686 16.2338 29.2463 16.4175 29.3828 16.5527C29.5193 16.6879 29.7037 16.7638 29.8959 16.7638C30.0881 16.7638 30.2725 16.6879 30.409 16.5527C30.5456 16.4175 30.6232 16.2338 30.6251 16.0417V8.74999C30.625 8.60896 30.5841 8.47096 30.5073 8.35271C30.4305 8.23445 30.321 8.141 30.1921 8.08369L17.0671 2.25038C16.9739 2.209 16.8729 2.18762 16.7709 2.18762C16.6689 2.18762 16.5679 2.209 16.4747 2.25038L3.34967 8.08369C3.22081 8.141 3.11134 8.23445 3.0345 8.35271C2.95767 8.47096 2.91676 8.60896 2.91675 8.74999V24.7917C2.91677 24.9327 2.95768 25.0706 3.03451 25.1889C3.11135 25.3071 3.22082 25.4005 3.34967 25.4578L16.4747 31.2911C16.5729 31.3348 16.6797 31.3563 16.7872 31.354C16.8948 31.3516 17.0005 31.3255 17.0967 31.2774L17.8259 30.9128C17.9121 30.8703 17.9891 30.8112 18.0524 30.7389C18.1156 30.6665 18.164 30.5824 18.1946 30.4913C18.2253 30.4002 18.2376 30.304 18.2309 30.2081C18.2242 30.1122 18.1987 30.0186 18.1557 29.9326C18.1127 29.8467 18.0532 29.77 17.9805 29.7072C17.9078 29.6443 17.8234 29.5964 17.7321 29.5663C17.6408 29.5362 17.5445 29.5244 17.4487 29.5316C17.3528 29.5388 17.2594 29.5649 17.1736 29.6083L17.1739 29.6081ZM16.7706 13.7854L11.6121 11.4926L22.9004 6.4756C22.9134 6.46979 22.9242 6.46132 22.9367 6.45509L28.1005 8.74999L16.7706 13.7854ZM16.7706 3.7145L21.1463 5.65919L9.91217 10.6522C9.88324 10.6662 9.85529 10.6822 9.8285 10.7L5.44146 8.74999L16.7706 3.7145Z" fill="white"/>
<path d="M24.7918 16.7708C23.3496 16.7708 21.9398 17.1984 20.7407 17.9997C19.5416 18.8009 18.607 19.9397 18.0551 21.272C17.5032 22.6044 17.3588 24.0705 17.6401 25.485C17.9214 26.8995 18.6159 28.1987 19.6357 29.2185C20.6554 30.2382 21.9547 30.9327 23.3691 31.2141C24.7836 31.4954 26.2497 31.351 27.5821 30.7992C28.9145 30.2473 30.0533 29.3127 30.8545 28.1136C31.6557 26.9144 32.0834 25.5047 32.0834 24.0625C32.0812 22.1293 31.3123 20.2759 29.9453 18.9089C28.5784 17.5419 26.725 16.773 24.7918 16.7708ZM24.7918 29.8958C23.638 29.8958 22.5102 29.5537 21.5509 28.9127C20.5917 28.2718 19.844 27.3607 19.4025 26.2948C18.961 25.2289 18.8455 24.056 19.0705 22.9245C19.2956 21.7929 19.8512 20.7535 20.667 19.9377C21.4828 19.1219 22.5222 18.5664 23.6537 18.3413C24.7853 18.1162 25.9582 18.2317 27.0241 18.6732C28.09 19.1147 29.001 19.8624 29.642 20.8217C30.283 21.781 30.6251 22.9088 30.6251 24.0625C30.6233 25.609 30.0082 27.0917 28.9146 28.1853C27.821 29.2789 26.3383 29.894 24.7918 29.8958Z" fill="white"/>
<path d="M27.1929 22.0886L24.0626 25.2189L22.7552 23.9116C22.6878 23.8426 22.6074 23.7876 22.5186 23.75C22.4298 23.7123 22.3344 23.6926 22.238 23.692C22.1415 23.6915 22.0459 23.7101 21.9567 23.7467C21.8675 23.7834 21.7864 23.8374 21.7182 23.9056C21.65 23.9738 21.596 24.0549 21.5593 24.1441C21.5227 24.2333 21.5041 24.3289 21.5047 24.4254C21.5052 24.5218 21.5249 24.6172 21.5626 24.706C21.6003 24.7948 21.6552 24.8752 21.7242 24.9426L23.5471 26.7656C23.6148 26.8333 23.6952 26.887 23.7836 26.9237C23.8721 26.9603 23.9669 26.9792 24.0626 26.9792C24.1584 26.9792 24.2532 26.9603 24.3417 26.9237C24.4301 26.887 24.5105 26.8333 24.5782 26.7656L28.224 23.1198C28.3581 22.9825 28.4327 22.7979 28.4316 22.606C28.4305 22.414 28.3538 22.2303 28.2181 22.0946C28.0824 21.9589 27.8986 21.8822 27.7067 21.8811C27.5148 21.8799 27.3302 21.9546 27.1929 22.0887V22.0886Z" fill="white"/>
</svg>
