<svg width="19" height="19" viewBox="0 0 19 19" fill="none" xmlns="http://www.w3.org/2000/svg">
<g clip-path="url(#clip0_25_45)">
<path d="M16.0613 8.21053C16.3189 7.87753 16.5234 7.61034 16.6744 7.40876C17.7621 5.96262 18.2336 5.03882 18.0891 4.63607L18.0324 4.54174C17.9947 4.48508 17.8971 4.43305 17.74 4.38596C17.5828 4.3389 17.3816 4.33138 17.1365 4.36244L14.4203 4.3816C14.3575 4.37534 14.2941 4.37681 14.2316 4.38596C14.1687 4.39552 14.1279 4.40512 14.1089 4.41427C14.09 4.42386 14.0744 4.43155 14.0619 4.43782L14.0242 4.46613C13.9928 4.48488 13.9582 4.51799 13.9205 4.56529C13.8828 4.61255 13.8511 4.66734 13.8262 4.73043C13.5307 5.49116 13.1943 6.19861 12.817 6.85253C12.5843 7.24239 12.3705 7.5806 12.1758 7.8663C11.9808 8.15265 11.8174 8.36321 11.6853 8.49814C11.5533 8.6333 11.4337 8.74198 11.327 8.82345C11.2199 8.90549 11.1383 8.93986 11.0819 8.92737C11.0282 8.91567 10.9747 8.90303 10.9215 8.88946C10.8334 8.83304 10.7626 8.75617 10.7093 8.65851C10.6558 8.56129 10.6197 8.43859 10.6008 8.29073C10.582 8.14309 10.5708 8.01565 10.5679 7.9086C10.5645 7.80178 10.5662 7.651 10.5727 7.45585C10.5789 7.2609 10.582 7.12911 10.582 7.05976C10.582 6.82109 10.5868 6.56162 10.5962 6.28174C10.6056 6.00206 10.6135 5.78026 10.6197 5.61676C10.626 5.45349 10.6291 5.28042 10.6291 5.098C10.6291 4.91598 10.6181 4.77269 10.5959 4.6688C10.5737 4.565 10.5406 4.46385 10.497 4.36704C10.4529 4.26978 10.3885 4.19417 10.3036 4.14089C10.2186 4.08736 10.1134 4.0451 9.98767 4.01342C9.65423 3.9378 9.22983 3.89741 8.7144 3.89078C7.54485 3.8787 6.79347 3.95407 6.46027 4.11734C6.32824 4.18669 6.2087 4.28081 6.10188 4.40035C5.9886 4.53885 5.97298 4.61442 6.05482 4.6265C6.43216 4.68316 6.69918 4.81852 6.85639 5.03219L6.91305 5.14526C6.95698 5.22731 7.00094 5.37186 7.04508 5.57926C7.08904 5.7867 7.11735 6.01618 7.13005 6.26775C7.16149 6.72673 7.16149 7.11952 7.13005 7.4467C7.0986 7.77384 7.06883 8.02834 7.04052 8.21036C7.01217 8.39279 6.9697 8.54043 6.91325 8.65351C6.85659 8.76699 6.81892 8.83614 6.79997 8.86132C6.78102 8.8863 6.7654 8.90212 6.75291 8.90842C6.67164 8.93963 6.5853 8.95558 6.49824 8.95548C6.41014 8.95548 6.30329 8.91131 6.17753 8.82321C6.05172 8.73555 5.92116 8.61434 5.7862 8.46023C5.65084 8.30635 5.49859 8.09082 5.32866 7.81403C5.15892 7.53769 4.98273 7.21051 4.8005 6.83337L4.64972 6.55972C4.5554 6.38396 4.42647 6.12759 4.26299 5.79126C4.09952 5.45492 3.95477 5.12964 3.8292 4.81499C3.77881 4.68316 3.7034 4.58257 3.60284 4.51322L3.55578 4.48491C3.52434 4.4599 3.47395 4.43305 3.4048 4.40491C3.33497 4.37645 3.26219 4.35585 3.1878 4.34349L0.603593 4.36224C0.339534 4.36224 0.160443 4.42223 0.0661169 4.54174L0.0284136 4.59819C0.00935777 4.62984 0 4.68023 0 4.74917C0 4.81852 0.0189537 4.90329 0.0566571 5.00367C0.433997 5.89041 0.844275 6.74551 1.28743 7.56893C1.73081 8.39279 2.11588 9.05627 2.44282 9.55921C2.76977 10.0626 3.10297 10.5369 3.44264 10.9834C3.78231 11.4299 4.007 11.7158 4.11694 11.8414C4.22689 11.9674 4.31332 12.0618 4.37624 12.1244L4.61199 12.351C4.76277 12.5018 4.98456 12.6825 5.27697 12.8933C5.56934 13.104 5.89298 13.3115 6.24848 13.5156C6.60356 13.7201 7.01714 13.8864 7.4886 14.0156C7.9601 14.1447 8.41907 14.1965 8.86555 14.1711H9.95017C10.1703 14.1524 10.3368 14.0835 10.45 13.9637L10.4876 13.9166C10.5126 13.8791 10.5364 13.8208 10.5584 13.7423C10.5803 13.6638 10.5916 13.5772 10.5916 13.483C10.5851 13.2128 10.6058 12.9687 10.6528 12.7521C10.6999 12.5351 10.7534 12.3718 10.8132 12.2615C10.873 12.1517 10.9404 12.0588 11.016 11.9832C11.0914 11.9076 11.1447 11.8624 11.1763 11.8466C11.2078 11.8312 11.233 11.8201 11.2518 11.8135C11.4025 11.7632 11.5802 11.812 11.7847 11.9597C11.989 12.1078 12.1808 12.2897 12.3601 12.5067C12.5391 12.7237 12.7545 12.9672 13.0061 13.2377C13.2574 13.508 13.4775 13.7092 13.6662 13.8412L13.8549 13.9547C13.9807 14.0299 14.144 14.099 14.3453 14.1621C14.5465 14.2248 14.7227 14.2406 14.8735 14.2092L17.2879 14.1713C17.5268 14.1713 17.7124 14.1322 17.8444 14.0534C17.9764 13.9753 18.055 13.8883 18.0802 13.7942C18.1051 13.6998 18.1068 13.5934 18.085 13.4736C18.0629 13.3543 18.0408 13.271 18.019 13.2239C17.9969 13.1769 17.9765 13.1373 17.9575 13.1061C17.6431 12.5403 17.0427 11.8453 16.1561 11.0217L16.1372 11.0029L16.1278 10.9934L16.1184 10.9842H16.109C15.7064 10.6006 15.4519 10.3427 15.3451 10.2105C15.1502 9.95938 15.106 9.70468 15.2131 9.44688C15.2881 9.25139 15.5709 8.83947 16.0613 8.21053Z" fill="#2F2828"/>
</g>
<defs>
<clipPath id="clip0_25_45">
<rect width="18.1145" height="18.1145" fill="white"/>
</clipPath>
</defs>
</svg>
