<svg width="72" height="18" viewBox="0 0 72 18" fill="none" xmlns="http://www.w3.org/2000/svg">
<g clip-path="url(#clip0_25_167)">
<path d="M22.5984 3.37087C22.3363 2.3881 21.5644 1.61068 20.5887 1.34666C18.8266 0.86261 11.7345 0.86261 11.7345 0.86261C11.7345 0.86261 4.64235 0.877278 2.88023 1.36133C1.90452 1.62536 1.13269 2.40277 0.870554 3.38553C0.404541 5.16039 0.404541 8.87141 0.404541 8.87141C0.404541 8.87141 0.404541 12.5825 0.885117 14.372C1.14725 15.3548 1.91908 16.1322 2.8948 16.3962C4.65691 16.8803 11.749 16.8803 11.749 16.8803C11.749 16.8803 18.8411 16.8803 20.6033 16.3962C21.579 16.1322 22.3508 15.3548 22.613 14.372C23.0935 12.5972 23.0935 8.87141 23.0935 8.87141C23.0935 8.87141 23.079 5.16039 22.5984 3.37087Z" fill="#C9C3C2"/>
<path d="M15.3607 8.87149L9.47729 5.43915V12.3039L15.3607 8.87149Z" fill="white"/>
<path d="M33.3167 15.4282C32.8652 15.1202 32.5449 14.6508 32.3555 14.0054C32.1662 13.36 32.0788 12.5093 32.0788 11.4385V9.98629C32.0788 8.91555 32.1808 8.03544 32.3992 7.39006C32.6176 6.72999 32.9526 6.2606 33.4186 5.96724C33.8846 5.67388 34.4817 5.51253 35.2244 5.51253C35.9525 5.51253 36.5496 5.65921 36.9865 5.96724C37.4234 6.27528 37.7584 6.74466 37.9622 7.39006C38.1661 8.03544 38.2681 8.90086 38.2681 9.97167V11.4238C38.2681 12.4946 38.1661 13.3453 37.9622 13.9907C37.7584 14.6361 37.4379 15.1055 36.9865 15.4135C36.5351 15.7069 35.9234 15.8683 35.1662 15.8683C34.3798 15.8829 33.7681 15.7216 33.3167 15.4282ZM35.836 13.8587C35.9671 13.536 36.0254 12.9933 36.0254 12.2599V9.13556C36.0254 8.41685 35.9671 7.88879 35.836 7.56605C35.7049 7.22871 35.4865 7.06736 35.1807 7.06736C34.8749 7.06736 34.671 7.22871 34.54 7.56605C34.4089 7.90341 34.3506 8.41685 34.3506 9.13556V12.2599C34.3506 12.9933 34.4089 13.536 34.5254 13.8587C34.6419 14.1814 34.8603 14.3428 35.1807 14.3428C35.4865 14.3428 35.7049 14.1814 35.836 13.8587ZM67.7582 11.4678V11.9812L67.8161 13.4334C67.8597 13.756 67.9326 13.9907 68.0492 14.1374C68.1657 14.2841 68.3551 14.3575 68.6024 14.3575C68.9376 14.3575 69.1706 14.2254 69.2871 13.9614C69.4179 13.6974 69.4765 13.2573 69.4908 12.6559L71.4278 12.7733C71.4421 12.8613 71.4421 12.9787 71.4421 13.1253C71.4421 14.0494 71.1948 14.7388 70.6852 15.1935C70.1755 15.6482 69.4765 15.8829 68.5588 15.8829C67.4523 15.8829 66.6804 15.5309 66.2436 14.8415C65.8063 14.1521 65.5732 13.0666 65.5732 11.6145V9.83964C65.5732 8.34349 65.8063 7.24337 66.258 6.55397C66.724 5.86457 67.5102 5.51253 68.6174 5.51253C69.3886 5.51253 69.9712 5.65921 70.3793 5.9379C70.7867 6.2166 71.0783 6.65665 71.2527 7.25804C71.4278 7.85942 71.5007 8.68085 71.5007 9.73698V11.4531H67.7582V11.4678ZM68.0492 7.24337C67.9326 7.39006 67.8597 7.61011 67.8161 7.93278C67.7725 8.25545 67.7582 8.73953 67.7582 9.39962V10.1183H69.3893V9.39962C69.3893 8.75421 69.3743 8.27014 69.3307 7.93278C69.2871 7.59542 69.2142 7.36072 69.0977 7.22871C68.9812 7.09669 68.8068 7.02335 68.5738 7.02335C68.3258 7.03802 68.1513 7.11136 68.0492 7.24337ZM27.8701 11.2771L25.3217 2.00684H27.5498L28.4381 6.20194C28.6711 7.24337 28.8313 8.12348 28.9478 8.84219H29.006C29.0789 8.31413 29.2536 7.4487 29.5157 6.2166L30.4332 2.00684H32.6614L30.0837 11.2624V15.7069H27.8847V11.2771H27.8701Z" fill="#2F2828"/>
<path d="M45.4914 5.70325V15.7216H43.7438L43.5545 14.4895H43.5108C43.0303 15.4136 42.3166 15.883 41.3701 15.883C40.7147 15.883 40.2196 15.6629 39.9138 15.2229C39.5934 14.7829 39.4478 14.1081 39.4478 13.184V5.70325H41.6904V13.052C41.6904 13.492 41.7341 13.8147 41.8361 14.0054C41.938 14.1961 42.0982 14.2841 42.3166 14.2841C42.506 14.2841 42.6953 14.2254 42.8701 14.1081C43.0448 13.9907 43.1759 13.8294 43.2633 13.6534V5.70325H45.4914Z" fill="#2F2828"/>
<path d="M56.9814 5.70325V15.7216H55.2338L55.0445 14.4895H55.0008C54.5202 15.4136 53.8066 15.883 52.86 15.883C52.2047 15.883 51.7095 15.6629 51.4038 15.2229C51.0833 14.7829 50.9377 14.1081 50.9377 13.184V5.70325H53.1804V13.052C53.1804 13.492 53.2241 13.8147 53.326 14.0054C53.428 14.1961 53.5882 14.2841 53.8066 14.2841C53.996 14.2841 54.1852 14.2254 54.36 14.1081C54.5348 13.9907 54.6658 13.8294 54.7532 13.6534V5.70325H56.9814Z" fill="#2F2828"/>
<path d="M51.5787 3.82565H49.3505V15.7215H47.1661V3.82565H44.938V2.00679H51.5641V3.82565H51.5787ZM64.3795 7.30201C64.2484 6.67127 64.0299 6.21656 63.7242 5.9232C63.4183 5.6445 63.0106 5.49782 62.4717 5.49782C62.064 5.49782 61.6707 5.61516 61.3213 5.84985C60.9572 6.08455 60.695 6.39257 60.4912 6.77395H60.4766V1.49341H58.3213V15.7068H60.1708L60.4038 14.7534H60.4475C60.6223 15.0908 60.8844 15.3549 61.2193 15.5602C61.5719 15.7548 61.9678 15.8557 62.3698 15.8536C63.1271 15.8536 63.6804 15.5015 64.0445 14.7974C64.394 14.0933 64.5834 12.9932 64.5834 11.5118V9.92764C64.5834 8.81284 64.5105 7.93273 64.3795 7.30201ZM62.3261 11.3944C62.3261 12.1278 62.297 12.6999 62.2388 13.1106C62.1805 13.5213 62.0785 13.8147 61.9329 13.9907C61.7873 14.1667 61.598 14.2547 61.365 14.2547C61.1756 14.2547 61.0155 14.2107 60.8553 14.1227C60.695 14.0347 60.5785 13.9027 60.4766 13.7267V8.03539C60.5494 7.75671 60.6805 7.5367 60.8698 7.36068C61.0591 7.18466 61.2485 7.09665 61.4669 7.09665C61.6999 7.09665 61.8747 7.18466 61.9912 7.36068C62.1223 7.5367 62.195 7.84475 62.2533 8.27009C62.297 8.69549 62.3261 9.29685 62.3261 10.089V11.3944Z" fill="#2F2828"/>
</g>
<defs>
<clipPath id="clip0_25_167">
<rect width="71.5954" height="16.3893" fill="white" transform="translate(0.404541 0.86261)"/>
</clipPath>
</defs>
</svg>
